<?xml version="1.0" encoding="utf-8"?>
<!-- Generator: Adobe Illustrator 14.0.0, SVG Export Plug-In . SVG Version: 6.00 Build 43363)  -->
<!DOCTYPE svg PUBLIC "-//W3C//DTD SVG 1.1//EN" "http://www.w3.org/Graphics/SVG/1.1/DTD/svg11.dtd">
<svg version="1.1" id="Layer_1" xmlns="http://www.w3.org/2000/svg" xmlns:xlink="http://www.w3.org/1999/xlink" x="0px" y="0px"
	 width="590px" height="590px" viewBox="105 4.626 590 590" enable-background="new 105 4.626 590 590" xml:space="preserve">
<rect x="101.579" y="0.374" fill="#B1E5FC" stroke="#FFFFFF" width="596.842" height="598.504"/>
<g>
	<path fill="none" stroke="#B1E5FC" stroke-width="4" d="M211.98,201.736l-1.646-28.374c-0.189-3.278,2.341-5.961,5.627-5.961
		h18.909c3.284,0,5.623,2.665,5.197,5.921l-3.705,28.414"/>
</g>
<g>
	<path fill="none" stroke="#B1E5FC" stroke-width="4" d="M240.84,172.253h7.781c3.284,0,5.454,2.637,4.822,5.859l-4.013,20.451"/>
</g>
<g>
	<path fill="none" stroke="#B1E5FC" stroke-width="4" d="M208.449,172.253h-7.782c-3.284,0-5.38,2.622-4.659,5.825l4.241,18.821"/>
</g>
<path fill="#D2F5FF" stroke="#B1E5FC" stroke-width="10" d="M400.001,449.701c12.224-1.018,69.251,96.741,75.357,97.769
	c6.116,1.019,138.871,0.849,147.332-1.191c4.918-1.189,5.597-10.526,5.597-19.688c0-9.167-17.478-65.176-40.905-101.332
	c-14.116-21.79-45.09-81.24-48.818-90.932c-3.12-8.104-10.162-12.886,1.075-19.355c5.436-3.138,27.347,1.167,65.051-5.811
	c12.181-2.249,40.735-7.124,41.759-44.805c1.016-37.682-46.395-62.783-74.343-75.868c-30.981-14.5-86.786-25.323-90.635-35.649
	c-2.479-6.636-2.548-7.123-3.058-11.704c-0.566-5.062,5.093-22.409-14.259-54.996c-19.346-32.584-64.157-34.965-64.157-34.965
	s-44.803,2.381-64.157,34.965c-19.35,32.587-13.694,49.935-14.258,54.996c-0.507,4.578-0.576,5.068-3.055,11.704
	c-3.849,10.326-59.652,21.148-90.636,35.649c-27.947,13.088-75.356,38.187-74.34,75.868c1.018,37.678,29.575,42.556,41.751,44.805
	c37.709,6.978,59.618,2.673,65.059,5.811c11.227,6.47,4.19,11.251,1.075,19.355c-3.729,9.691-34.704,69.142-48.817,90.932
	c-23.424,36.156-40.907,92.165-40.907,101.332c0,9.162,0.68,18.499,5.603,19.688c8.46,2.04,141.213,2.21,147.322,1.191
	C330.754,546.442,387.782,450.717,400.001,449.701z"/>
</svg>
