<?xml version="1.0" encoding="utf-8"?>
<!-- Generator: Adobe Illustrator 14.0.0, SVG Export Plug-In . SVG Version: 6.00 Build 43363)  -->
<!DOCTYPE svg PUBLIC "-//W3C//DTD SVG 1.1//EN" "http://www.w3.org/Graphics/SVG/1.1/DTD/svg11.dtd">
<svg version="1.1" id="Layer_1" xmlns="http://www.w3.org/2000/svg" xmlns:xlink="http://www.w3.org/1999/xlink" x="0px" y="0px"
	 width="590px" height="590px" viewBox="105 4.626 590 590" enable-background="new 105 4.626 590 590" xml:space="preserve">
<rect x="101.579" y="0.374" fill="#B1E5FC" stroke="#FFFFFF" width="596.842" height="598.504"/>
<g>
	<path fill="none" stroke="#B1E5FC" stroke-width="4" d="M211.98,201.736l-1.646-28.374c-0.189-3.278,2.341-5.961,5.627-5.961
		h18.909c3.284,0,5.623,2.665,5.197,5.921l-3.705,28.414"/>
</g>
<g>
	<path fill="none" stroke="#B1E5FC" stroke-width="4" d="M240.84,172.253h7.781c3.284,0,5.454,2.637,4.822,5.859l-4.013,20.451"/>
</g>
<g>
	<path fill="none" stroke="#B1E5FC" stroke-width="4" d="M208.449,172.253h-7.782c-3.284,0-5.38,2.622-4.659,5.825l4.241,18.821"/>
</g>
<path fill="#D2F5FF" stroke="#B1E5FC" stroke-width="10" d="M400.001,408.904c8.901-0.741,50.425,70.442,54.873,71.19
	c4.453,0.741,101.119,0.618,107.28-0.867c3.581-0.866,4.075-7.665,4.075-14.337c0-6.675-12.727-47.458-29.785-73.785
	c-10.279-15.866-32.833-59.155-35.548-66.212c-2.271-5.901-7.399-9.383,0.783-14.094c3.958-2.285,19.913,0.85,47.367-4.231
	c8.869-1.638,29.661-5.188,30.407-32.625c0.739-27.438-33.783-45.715-54.134-55.244c-22.56-10.559-63.193-18.439-65.996-25.958
	c-1.805-4.832-1.855-5.187-2.227-8.522c-0.412-3.686,3.709-16.317-10.383-40.046c-14.086-23.726-46.716-25.46-46.716-25.46
	s-32.624,1.734-46.717,25.46c-14.089,23.729-9.971,36.36-10.382,40.046c-0.369,3.333-0.419,3.69-2.224,8.522
	c-2.802,7.519-43.436,15.399-65.997,25.958c-20.35,9.53-54.871,27.806-54.131,55.244c0.741,27.436,21.535,30.987,30.401,32.625
	c27.458,5.081,43.411,1.946,47.373,4.231c8.175,4.711,3.051,8.192,0.783,14.094c-2.715,7.057-25.27,50.346-35.547,66.212
	c-17.056,26.327-29.787,67.11-29.787,73.785c0,6.672,0.495,13.471,4.079,14.337c6.161,1.485,102.825,1.608,107.274,0.867
	C349.578,479.346,391.104,409.643,400.001,408.904z"/>
</svg>
